<svg width="21" height="24" viewBox="0 0 21 24" fill="none" xmlns="http://www.w3.org/2000/svg">
<path d="M3.37506 22.3755C4.68676 22.3755 5.75011 21.3121 5.75011 20.0004C5.75011 18.6887 4.68676 17.6254 3.37506 17.6254C2.06335 17.6254 1 18.6887 1 20.0004C1 21.3121 2.06335 22.3755 3.37506 22.3755Z" stroke="white" stroke-width="2" stroke-linecap="round" stroke-linejoin="round"/>
<path d="M16.4377 22.3755C17.7494 22.3755 18.8127 21.3121 18.8127 20.0004C18.8127 18.6887 17.7494 17.6254 16.4377 17.6254C15.126 17.6254 14.0626 18.6887 14.0626 20.0004C14.0626 21.3121 15.126 22.3755 16.4377 22.3755Z" stroke="white" stroke-width="2" stroke-linecap="round" stroke-linejoin="round"/>
<path d="M16.4379 17.6254H3.37506V1H1" stroke="white" stroke-width="2" stroke-linecap="round" stroke-linejoin="round"/>
<path d="M3.37447 3.375L19.9999 4.56253L18.8123 12.8752H3.37447" stroke="white" stroke-width="2" stroke-linecap="round" stroke-linejoin="round"/>
</svg>
