<svg width="24" height="24" viewBox="0 0 24 24" fill="none" xmlns="http://www.w3.org/2000/svg">
<path d="M22.7996 21.8258L16.1416 15.1027C17.3826 13.611 18.1305 11.6919 18.1305 9.59646C18.1305 4.84881 14.2956 1 9.56524 1C4.83483 1 1 4.84881 1 9.59646C1 14.3441 4.83483 18.1929 9.56524 18.1929C11.7144 18.1929 13.6776 17.3965 15.1816 16.0837L21.8303 22.7986C22.0979 23.0671 22.532 23.0671 22.7996 22.7986C23.0668 22.53 23.0668 22.0947 22.7996 21.8258H22.7996ZM9.56524 16.8288C5.58548 16.8288 2.35913 13.5907 2.35913 9.59646C2.35913 5.6022 5.58548 2.36409 9.56524 2.36409C13.545 2.36409 16.7713 5.6022 16.7713 9.59646C16.7713 13.5907 13.545 16.8288 9.56524 16.8288Z" fill="white" stroke="white"/>
</svg>
